<svg width="30" height="43" viewBox="0 0 30 43" fill="none" xmlns="http://www.w3.org/2000/svg">
<path d="M14.7767 1.52014C7.45601 1.52014 1.5166 7.39088 1.5166 14.6215C1.5166 22.9413 10.3567 36.1259 13.6026 40.6798C13.7373 40.872 13.9139 41.0284 14.118 41.1363C14.322 41.2441 14.5477 41.3004 14.7767 41.3004C15.0056 41.3004 15.2313 41.2441 15.4354 41.1363C15.6394 41.0284 15.816 40.872 15.9507 40.6798C19.1967 36.1278 28.0367 22.948 28.0367 14.6215C28.0367 7.39088 22.0973 1.52014 14.7767 1.52014Z" stroke="black" stroke-width="3" stroke-linecap="round" stroke-linejoin="round"/>
<path d="M14.7767 21.4102C17.706 21.4102 20.0807 19.0355 20.0807 16.1062C20.0807 13.1769 17.706 10.8022 14.7767 10.8022C11.8474 10.8022 9.47266 13.1769 9.47266 16.1062C9.47266 19.0355 11.8474 21.4102 14.7767 21.4102Z" stroke="black" stroke-width="3" stroke-linecap="round" stroke-linejoin="round"/>
</svg>
