<svg width="35" height="36" viewBox="0 0 35 36" fill="none" xmlns="http://www.w3.org/2000/svg">
<path d="M32.3584 27.1093C31.1436 25.8853 28.2013 24.0991 26.7738 23.3793C24.9148 22.443 24.7618 22.3665 23.3006 23.452C22.3259 24.1764 21.678 24.8236 20.5373 24.5803C19.3967 24.337 16.918 22.9654 14.7476 20.8021C12.5773 18.6388 11.126 16.0883 10.882 14.9516C10.6379 13.8149 11.2958 13.1746 12.0134 12.1977C13.0248 10.8208 12.9483 10.5913 12.0838 8.73238C11.4098 7.28659 9.57148 4.37205 8.34285 3.16339C7.02854 1.86524 7.02854 2.09473 6.18166 2.44661C5.4922 2.73668 4.83075 3.08928 4.20561 3.49998C2.98157 4.31314 2.30223 4.98861 1.82715 6.00373C1.35207 7.01885 1.13863 9.39867 3.59206 13.8554C6.04549 18.3121 7.76679 20.591 11.3295 24.1435C14.8922 27.696 17.6318 29.6062 21.6367 31.8521C26.5909 34.6267 28.4913 34.0858 29.5095 33.6115C30.5277 33.1373 31.2063 32.4641 32.0211 31.2401C32.4329 30.6161 32.7863 29.9554 33.0768 29.2665C33.4295 28.4227 33.659 28.4227 32.3584 27.1093Z" stroke="black" stroke-width="3" stroke-miterlimit="10"/>
</svg>
